<svg width="18" height="18" viewBox="0 0 18 18" fill="none" xmlns="http://www.w3.org/2000/svg">
<path d="M8.06808 9.92513C7.67989 9.53833 7.67531 8.91115 8.05782 8.51873L14.164 2.25439H11.125C10.5727 2.25439 10.125 1.80668 10.125 1.25439V1.00439C10.125 0.45211 10.5727 0.00439453 11.125 0.00439453H18V6.8794C18 7.43168 17.5523 7.8794 17 7.8794H16.75C16.1977 7.8794 15.75 7.43168 15.75 6.8794V3.85039L9.66701 10.0911C9.27852 10.4897 8.63936 10.4943 8.24509 10.1015L8.06808 9.92513Z" fill="white"/>
<path d="M8 0C8.55228 0 9 0.447716 9 1V1.25C9 1.80228 8.55228 2.25 8 2.25H2.35C2.29477 2.25 2.25 2.29477 2.25 2.35V15.65C2.25 15.7052 2.29477 15.75 2.35 15.75H15.65C15.7052 15.75 15.75 15.7052 15.75 15.65V10C15.75 9.44772 16.1977 9 16.75 9H17C17.5523 9 18 9.44772 18 10V17.5C18 17.7761 17.7761 18 17.5 18H1C0.447715 18 0 17.5523 0 17V0.5C0 0.223858 0.223858 0 0.5 0H8Z" fill="white"/>
</svg>