<svg width="40" height="40" viewBox="0 0 40 40" fill="none" xmlns="http://www.w3.org/2000/svg">
<path d="M20 0C14.5667 0 13.8883 0.025 11.755 0.12C9.625 0.22 8.175 0.555 6.9 1.05C5.585 1.56 4.46833 2.245 3.35667 3.35667C2.245 4.46833 1.55833 5.58333 1.05 6.9C0.555 8.175 0.218333 9.625 0.12 11.755C0.02 13.8883 0 14.5667 0 20C0 25.4333 0.025 26.1117 0.12 28.245C0.22 30.3733 0.555 31.825 1.05 33.1C1.56 34.4133 2.245 35.5317 3.35667 36.6433C4.46833 37.7533 5.58333 38.4417 6.9 38.95C8.17667 39.4433 9.62667 39.7817 11.755 39.88C13.8883 39.98 14.5667 40 20 40C25.4333 40 26.1117 39.975 28.245 39.88C30.3733 39.78 31.825 39.4433 33.1 38.95C34.4133 38.44 35.5317 37.7533 36.6433 36.6433C37.7533 35.5317 38.4417 34.4183 38.95 33.1C39.4433 31.825 39.7817 30.3733 39.88 28.245C39.98 26.1117 40 25.4333 40 20C40 14.5667 39.975 13.8883 39.88 11.755C39.78 9.62667 39.4433 8.17333 38.95 6.9C38.44 5.585 37.7533 4.46833 36.6433 3.35667C35.5317 2.245 34.4183 1.55833 33.1 1.05C31.825 0.555 30.3733 0.218333 28.245 0.12C26.1117 0.02 25.4333 0 20 0ZM20 3.6C25.3383 3.6 25.975 3.62667 28.0833 3.71833C30.0333 3.81 31.0917 4.13333 31.795 4.41C32.7317 4.77167 33.395 5.205 34.0983 5.90333C34.7967 6.60333 35.23 7.26833 35.5917 8.205C35.865 8.90833 36.1917 9.96667 36.28 11.9167C36.375 14.0267 36.3967 14.66 36.3967 20C36.3967 25.34 36.3717 25.975 36.2733 28.0833C36.1717 30.0333 35.8467 31.0917 35.5717 31.795C35.1983 32.7317 34.7733 33.395 34.0733 34.0983C33.375 34.7967 32.7 35.23 31.7733 35.5917C31.0733 35.865 29.9983 36.1917 28.0483 36.28C25.925 36.375 25.3 36.3967 19.95 36.3967C14.5983 36.3967 13.9733 36.3717 11.8517 36.2733C9.9 36.1717 8.825 35.8467 8.125 35.5717C7.17667 35.1983 6.525 34.7733 5.82667 34.0733C5.125 33.375 4.67667 32.7 4.32667 31.7733C4.05167 31.0733 3.72833 29.9983 3.62667 28.0483C3.55167 25.9483 3.525 25.3 3.525 19.975C3.525 14.6483 3.55167 13.9983 3.62667 11.8733C3.72833 9.92333 4.05167 8.85 4.32667 8.15C4.67667 7.2 5.125 6.55 5.82667 5.84833C6.525 5.15 7.17667 4.7 8.125 4.35167C8.825 4.075 9.87667 3.75 11.8267 3.65C13.9517 3.575 14.5767 3.55 19.925 3.55L20 3.6ZM20 9.73C14.325 9.73 9.73 14.33 9.73 20C9.73 25.675 14.33 30.27 20 30.27C25.675 30.27 30.27 25.67 30.27 20C30.27 14.325 25.67 9.73 20 9.73ZM20 26.6667C16.3167 26.6667 13.3333 23.6833 13.3333 20C13.3333 16.3167 16.3167 13.3333 20 13.3333C23.6833 13.3333 26.6667 16.3167 26.6667 20C26.6667 23.6833 23.6833 26.6667 20 26.6667ZM33.0767 9.325C33.0767 10.65 32 11.725 30.6767 11.725C29.3517 11.725 28.2767 10.6483 28.2767 9.325C28.2767 8.00167 29.3533 6.92667 30.6767 6.92667C31.9983 6.925 33.0767 8.00167 33.0767 9.325Z" fill="#005BBC"/>
</svg>
