<svg width="40" height="34" viewBox="0 0 40 34" fill="none" xmlns="http://www.w3.org/2000/svg">
<path d="M39.9217 4.61665C38.4241 5.27599 36.8377 5.71122 35.2133 5.90832C36.9235 4.8804 38.204 3.26839 38.8183 1.36998C37.2333 2.29498 35.4767 2.96832 33.6067 3.34332C32.3729 2.02403 30.7381 1.14902 28.9561 0.854152C27.174 0.559285 25.3445 0.861067 23.7516 1.71263C22.1586 2.5642 20.8914 3.9179 20.1468 5.56352C19.4021 7.20914 19.2216 9.0546 19.6333 10.8133C12.8167 10.4916 6.77833 7.21665 2.73333 2.26998C1.99799 3.51967 1.61444 4.94503 1.62333 6.39498C1.62333 9.24498 3.07333 11.75 5.27 13.2216C3.9681 13.1802 2.69495 12.8282 1.55667 12.195V12.295C1.55593 14.189 2.21045 16.0249 3.40918 17.4912C4.60791 18.9576 6.27702 19.9641 8.13333 20.34C6.9305 20.6623 5.67069 20.7107 4.44667 20.4816C4.97354 22.1117 5.99611 23.5365 7.37169 24.5575C8.74728 25.5784 10.4073 26.1445 12.12 26.1766C9.21921 28.4532 5.63746 29.6888 1.95 29.685C1.3 29.685 0.651667 29.6467 0 29.5733C3.75951 31.9805 8.13085 33.2583 12.595 33.255C27.6833 33.255 35.925 20.7616 35.925 9.94665C35.925 9.59665 35.925 9.24665 35.9 8.89665C37.51 7.73809 38.8987 6.29968 40 4.64998L39.9217 4.61665Z" fill="#005BBC"/>
</svg>
